<?xml version="1.0" encoding="utf-8"?>
<!-- Generator: Adobe Illustrator 24.1.2, SVG Export Plug-In . SVG Version: 6.00 Build 0)  -->
<svg version="1.1" id="color" xmlns="http://www.w3.org/2000/svg" xmlns:xlink="http://www.w3.org/1999/xlink" x="0px" y="0px"
	 viewBox="0 0 21 21" style="enable-background:new 0 0 21 21;" xml:space="preserve">
<style type="text/css">
	.st1{fill:#FFD600;stroke:#31475E;}
</style>
<g id="_x31_">
	<g id="Icon-Estrella" transform="translate(6.000000, 6.000000)">
		<path id="Path" class="st0" d="M13.9,2.1c-0.1-0.4-0.5-0.7-0.9-0.7L7.6,0.8L5.4-4.4C5.3-4.8,4.9-5.1,4.5-5.1
			c-0.4,0-0.8,0.2-0.9,0.6L1.4,0.8L-4,1.3c-0.4,0-0.7,0.3-0.9,0.7c-0.1,0.4,0,0.8,0.3,1.1l4.1,3.8l-1.2,5.6
			c-0.1,0.4,0.1,0.8,0.4,1.1c0.2,0.1,0.4,0.2,0.6,0.2c0.2,0,0.4,0,0.5-0.1l4.7-2.9l4.7,2.9c0.3,0.2,0.8,0.2,1.1,0
			c0.3-0.2,0.5-0.7,0.4-1.1L9.5,6.9l4.1-3.8C13.9,2.9,14.1,2.5,13.9,2.1z"/>
		<path id="Path_1_" class="st1" d="M-0.9,14.3c-0.2,0-0.4-0.1-0.6-0.2C-1.8,13.9-2,13.4-1.9,13l1.2-5.8l-4.2-3.9
			C-5.2,3-5.3,2.5-5.2,2.1C-5,1.7-4.7,1.4-4.3,1.3l5.6-0.5l2.2-5.5c0.2-0.4,0.5-0.7,0.9-0.7s0.8,0.3,0.9,0.7l2.2,5.5l5.6,0.5
			c0.4,0,0.8,0.3,0.9,0.8c0.1,0.4,0,0.9-0.3,1.2L9.6,7.2l1.2,5.8c0.1,0.4-0.1,0.9-0.4,1.1c-0.3,0.3-0.8,0.3-1.1,0.1l-4.8-3.1
			l-4.8,3.1C-0.5,14.3-0.7,14.3-0.9,14.3L-0.9,14.3z"/>
	</g>
</g>
</svg>
