<?xml version="1.0" encoding="utf-8"?>
<!-- Generator: Adobe Illustrator 24.1.2, SVG Export Plug-In . SVG Version: 6.00 Build 0)  -->
<svg version="1.1" id="color" xmlns="http://www.w3.org/2000/svg" xmlns:xlink="http://www.w3.org/1999/xlink" x="0px" y="0px"
	 viewBox="0 0 21 21" style="enable-background:new 0 0 21 21;" xml:space="preserve">
<style type="text/css">
	.st0{fill:none;}
	.st1{fill:#31475E;fill-opacity:0.9787;}
</style>
<g>
	<path class="st0" d="M12.6,7.4l-2.1-5.2L8.4,7.4C8.3,7.8,7.9,8,7.6,8.1L2.3,8.6l4,3.7c0.3,0.3,0.4,0.7,0.3,1.1l-1.2,5.5L10,16
		c0.2-0.1,0.3-0.2,0.5-0.2s0.4,0.1,0.5,0.2l4.6,2.9l-1.2-5.5c-0.1-0.4,0-0.8,0.3-1.1l4-3.7l-5.3-0.5C13.1,8,12.7,7.8,12.6,7.4z"/>
	<path class="st1" d="M20.2,8.1c-0.1-0.4-0.5-0.7-0.9-0.8l-5.6-0.5l-2.2-5.5c-0.2-0.4-0.5-0.7-0.9-0.7S9.7,0.9,9.6,1.3L7.3,6.8
		L1.7,7.3C1.3,7.4,1,7.7,0.8,8.1C0.7,8.5,0.8,9,1.1,9.3l4.2,3.9L4.1,19c-0.1,0.4,0.1,0.9,0.4,1.1c0.2,0.1,0.4,0.2,0.6,0.2
		c0.2,0,0.4-0.1,0.5-0.2l4.8-3.1l4.8,3.1c0.4,0.2,0.8,0.2,1.1-0.1c0.3-0.3,0.5-0.7,0.4-1.1l-1.2-5.8l4.2-3.9
		C20.2,9,20.3,8.5,20.2,8.1z M14.7,12.3c-0.3,0.3-0.4,0.7-0.3,1.1l1.2,5.5L11,16c-0.2-0.1-0.3-0.2-0.5-0.2S10.1,15.9,10,16l-4.6,2.9
		l1.2-5.5c0.1-0.4,0-0.8-0.3-1.1l-4-3.7l5.3-0.5c0.4,0,0.7-0.3,0.9-0.7l2.1-5.2l2.1,5.2c0.1,0.4,0.5,0.6,0.9,0.7l5.3,0.5L14.7,12.3z
		"/>
</g>
</svg>
